<svg xmlns="http://www.w3.org/2000/svg" xmlns:xlink="http://www.w3.org/1999/xlink" width="140.97515869140625" height="132.66043090820312" viewBox="0 0 140.97515869140625 132.66043090820312" fill="none"><defs><path id="path_0"
        transform="translate(0 0) rotate(0 46.99209976196289 39.500003814697266)"
        d="M0,79L93.98,79L93.98,0L0,0L0,79Z" /><linearGradient id="linear_0" x1="50%" y1="100%" x2="51%" y2="0%" gradientUnits="objectBoundingBox"><stop offset="0" stop-color="#3B80FF" stop-opacity="1" /><stop offset="1" stop-color="#4CC6FF" stop-opacity="1" /></linearGradient><linearGradient id="linear_1" x1="50%" y1="100%" x2="51%" y2="0%" gradientUnits="objectBoundingBox"><stop offset="0" stop-color="#346DFF" stop-opacity="0.3294" /><stop offset="1" stop-color="#346DFF" stop-opacity="0" /></linearGradient></defs><g opacity="1" transform="translate(0 0)  rotate(0 70.48757934570312 66.33021545410156)"><g opacity="1" transform="translate(0 0)  rotate(0 70.48757934570312 66.33021545410156)"><path id="矩形 16 拷贝 9" fill-rule="evenodd" style="fill:#081841" transform="translate(0 0)  rotate(0 70.48757934570312 66.33021545410156)" opacity="0.51" d="M140.98 132.66L0 132.66L0 0L140.98 0L140.98 132.66Z" /><path  id="矩形 16 拷贝 9" style="stroke:#346DFF; stroke-width:1; stroke-opacity:1; stroke-dasharray:0 0" transform="translate(0 0)  rotate(0 70.48757934570312 66.33021545410156)" d="M0,0Z M0,132.66L140.98,132.66L140.98,0L0,0L0,132.66Z " /><g opacity="1" transform="translate(26.015960693359375 28.566024780273438)  rotate(0 46.99209976196289 39.500003814697266)"><g opacity="1" transform="translate(0 0)  rotate(0 46.99209976196289 39.500003814697266)"><g opacity="1" transform="translate(0 0)  rotate(0 46.99209976196289 39.500003814697266)"><g opacity="1" transform="translate(0 0)  rotate(0 46.99209976196289 39.500003814697266)"><g opacity="1" transform="translate(0 0)  rotate(0 46.99209976196289 39.500003814697266)"><mask id="mask-0" fill="white"><use xlink:href="#path_0"></use></mask><g mask="url(#mask-0)"></g><g mask="url(#mask-0)"><path id="路径 7" fill-rule="evenodd" style="fill:#000000" transform="translate(23.082023950980727 0.06689453125)  rotate(0 35.38837034872839 39.403167724609375)" opacity="1" d="M53.03 25.62C53.03 32.47 49.09 38.46 43.36 41.38L61.36 45.32C66.8 46.45 70.71 51.29 70.78 56.88L70.78 70.93C70.78 75.27 67.25 78.81 62.91 78.81L7.86 78.81C3.53 78.81 0 75.27 0 70.93L0 56.9C-0.01 51.31 3.89 46.48 9.35 45.32L25.7 41.74L27.32 41.38C23.08 39.2 19.9 35.4 18.47 30.85C18.38 30.53 18.29 30.24 18.22 29.92C18.11 29.47 18.02 29.05 17.93 28.6C17.89 28.33 17.82 28.08 17.8 27.81C17.71 27.09 17.64 26.34 17.64 25.6L17.64 17.72C17.64 17.18 17.68 16.64 17.73 16.1C17.75 15.81 17.8 15.54 17.84 15.24C17.86 15.02 17.89 14.82 17.93 14.59C18 14.21 18.09 13.85 18.18 13.46L18.24 13.19C20.27 5.63 27.16 0 35.32 0C45.05 0 53.03 7.97 53.03 17.74L53.03 25.62Z" /></g><g mask="url(#mask-0)"><path id="路径 8" fill-rule="evenodd" style="fill:#000000" transform="translate(-0.015777587890568157 4.817840576171875)  rotate(0 18.49180603027341 32.5245056152344)" opacity="1" d="M0 58.54L0 46.95C0 42.33 3.24 38.34 7.73 37.4L22.58 34.16C17.84 31.73 14.6 26.79 14.6 21.14L14.6 14.64C14.6 6.57 21.17 0 29.21 0C31.81 0 34.35 0.71 36.58 2.05C34.92 5.36 33.97 9.05 33.97 12.99L33.97 20.87C33.97 25.08 35.05 29.11 36.98 32.65L30.94 33.95C22.47 35.73 16.29 43.39 16.29 52.12L16.29 65.05L6.49 65.05C2.9 65.05 0 62.14 0 58.54Z" /></g></g></g></g></g><path id="Gradient Overlay" fill-rule="evenodd" fill="url(#linear_0)" transform="translate(0.00422241210935681 0.06998474121093068)  rotate(0 46.93 39.405)" opacity="1" d="" /></g></g><path id="矩形 10" fill-rule="evenodd" fill="url(#linear_1)" transform="translate(4.146484375 31.083099365234375)  rotate(0 67.37774658203125 48.72100830078125)" opacity="1" d="M134.76 97.44L0 97.44L0 0L134.76 0L134.76 97.44Z" /><path  id="形状 5" style="stroke:#22FCFE; stroke-width:3; stroke-opacity:1; stroke-dasharray:0 0" transform="translate(18.66015625 20.71600341796875)  rotate(0 0 52.869998931884766)" d="M0,105.74Z M0,0L0,105.74 " /><path  id="形状 5 拷贝 2" style="stroke:#22FCFE; stroke-width:3; stroke-opacity:1; stroke-dasharray:0 0" transform="translate(127.0401611328125 62.756011962890625)  rotate(0 0 27.415000915527344)" d="M0,54.83Z M0,0L0,54.83 " /><path  id="形状 5 拷贝 3" style="stroke:#22FCFE; stroke-width:3; stroke-opacity:1; stroke-dasharray:0 0" transform="translate(112.53021240234375 8.85601806640625)  rotate(0 0 27.40999984741211)" d="M0,54.82Z M0,0L0,54.82 " /><path  id="形状 5 拷贝 9" style="stroke:#22FCFE; stroke-width:3; stroke-opacity:1; stroke-dasharray:0 0" transform="translate(33.75018310546875 46.175994873046875)  rotate(0 0 27.40999984741211)" d="M0,54.82Z M0,0L0,54.82 " /><path  id="形状 542" style="stroke:#35E5FC; stroke-width:2; stroke-opacity:1; stroke-dasharray:0 0" transform="translate(2.072265625 2.06201171875)  rotate(0 6.219451904296875 6.2194061279296875)" d="M12.44,0L0,0L0,12.44 " /><path  id="形状 542 拷贝" style="stroke:#35E5FC; stroke-width:2; stroke-opacity:1; stroke-dasharray:0 0" transform="translate(126.4622802734375 2.06201171875)  rotate(0 6.219390869140625 6.2194061279296875)" d="M0,0L12.44,0L12.44,12.44 " /><path  id="形状 542 拷贝 2" style="stroke:#35E5FC; stroke-width:2; stroke-opacity:1; stroke-dasharray:0 0" transform="translate(2.072265625 118.15921020507812)  rotate(0 6.219451904296875 6.219390869140625)" d="M12.44,12.44L0,12.44L0,0 " /><path  id="形状 542 拷贝 2" style="stroke:#35E5FC; stroke-width:2; stroke-opacity:1; stroke-dasharray:0 0" transform="translate(126.4622802734375 118.15921020507812)  rotate(0 6.219390869140625 6.219390869140625)" d="M0,12.44L12.44,12.44L12.44,0 " /></g></svg>