<svg xmlns="http://www.w3.org/2000/svg" xmlns:xlink="http://www.w3.org/1999/xlink" width="140.9747009277344" height="132.66043090820312" viewBox="0 0 140.9747009277344 132.66043090820312" fill="none"><defs><path id="path_0"
        transform="translate(0 0) rotate(0 43.49363327026367 43.5)"
        d="M0,87L86.99,87L86.99,0L0,0L0,87Z" /><linearGradient id="linear_0" x1="50%" y1="100%" x2="51%" y2="0%" gradientUnits="objectBoundingBox"><stop offset="0" stop-color="#3B80FF" stop-opacity="1" /><stop offset="1" stop-color="#4CC6FF" stop-opacity="1" /></linearGradient><linearGradient id="linear_1" x1="50%" y1="100%" x2="51%" y2="0%" gradientUnits="objectBoundingBox"><stop offset="0" stop-color="#346DFF" stop-opacity="0.3294" /><stop offset="1" stop-color="#346DFF" stop-opacity="0" /></linearGradient></defs><g opacity="1" transform="translate(0 0)  rotate(0 70.4873504638672 66.33021545410156)"><path id="矩形 16 拷贝 9" fill-rule="evenodd" style="fill:#081841" transform="translate(0 0)  rotate(0 70.4873504638672 66.33021545410156)" opacity="0.51" d="M140.97 132.66L0 132.66L0 0L140.97 0L140.97 132.66Z" /><path  id="矩形 16 拷贝 9" style="stroke:#346DFF; stroke-width:1; stroke-opacity:1; stroke-dasharray:0 0" transform="translate(0 0)  rotate(0 70.4873504638672 66.33021545410156)" d="M0,0Z M0,132.66L140.97,132.66L140.97,0L0,0L0,132.66Z " /><g opacity="1" transform="translate(26.010000000000005 24.566024780273438)  rotate(0 43.49500381469726 43.5)"><g opacity="1" transform="translate(0.002741088867182384 0)  rotate(0 43.49363327026367 43.5)"><g opacity="1" transform="translate(0 0)  rotate(0 43.49363327026367 43.5)"><g opacity="1" transform="translate(0 0)  rotate(0 43.49363327026367 43.5)"><g opacity="1" transform="translate(0 0)  rotate(0 43.49363327026367 43.5)"><mask id="mask-0" fill="white"><use xlink:href="#path_0"></use></mask><g mask="url(#mask-0)"></g><g mask="url(#mask-0)"><path id="路径 5" fill-rule="evenodd" style="fill:#9154DD" transform="translate(-0.012756347656193157 0.05511474609375)  rotate(0 43.45964050292966 43.41938018798831)" opacity="1" d="M79.68 25.33Z M25.35 9.05L25.35 7.24C25.35 5.32 24.59 3.48 23.23 2.12C21.87 0.76 20.03 0 18.11 0L7.24 0C3.24 0 0 3.24 0 7.24L0 18.09C0 22.09 3.24 25.33 7.24 25.33L9.05 25.33L9.05 61.51L7.24 61.51C5.32 61.51 3.48 62.27 2.12 63.63C0.76 64.99 0 66.83 0 68.75L0 79.6C0 81.52 0.76 83.36 2.12 84.72C3.48 86.08 5.32 86.84 7.24 86.84L18.11 86.84C20.03 86.84 21.87 86.08 23.23 84.72C24.59 83.36 25.35 81.52 25.35 79.6L25.35 77.79L61.57 77.79L61.57 79.6C61.57 81.52 62.33 83.36 63.69 84.72C65.05 86.08 66.89 86.84 68.81 86.84L79.68 86.84C81.6 86.84 83.44 86.08 84.8 84.72C86.16 83.36 86.92 81.52 86.92 79.6L86.92 68.75C86.92 66.83 86.16 64.99 84.8 63.63C83.44 62.27 81.6 61.51 79.68 61.51L77.87 61.51L77.87 25.33L79.68 25.33C81.6 25.33 83.44 24.57 84.8 23.21C86.16 21.85 86.92 20.01 86.92 18.09L86.92 7.24C86.92 5.32 86.16 3.48 84.8 2.12C83.44 0.76 81.6 0 79.68 0L68.81 0C66.89 0 65.05 0.76 63.69 2.12C62.33 3.48 61.57 5.32 61.57 7.24L61.57 9.05L25.35 9.05Z M7.24323 18.0965Z M18.1132 18.0965L18.1132 7.2365L7.24323 7.2365L7.24323 18.0965L18.1132 18.0965Z M18.1132 79.5976Z M18.1132 68.7476L7.24323 68.7476L7.24323 79.5976L18.1132 79.5976L18.1132 68.7476Z M79.6714 68.7476Z M68.8114 68.7476L68.8114 79.5976L79.6714 79.5976L79.6714 68.7476L68.8114 68.7476Z M68.8114 18.0965Z M79.6714 18.0965L79.6714 7.2365L68.8114 7.2365L68.8114 18.0965L79.6714 18.0965Z M62.5701 21.1379Z M20.5201 60.4279L25.4401 65.6879L67.4901 26.3779L62.5701 21.1379L20.5201 60.4279Z M67.3999 42.0627Z M41.7899 66.3427L46.6499 71.4527L72.2599 47.1827L67.3999 42.0627L41.7899 66.3427Z M40.8428 15.5405Z M15.2328 39.8005L20.0928 44.9205L45.7028 20.6605L40.8428 15.5405L15.2328 39.8005Z " /></g></g></g></g></g><path id="Gradient Overlay" fill-rule="evenodd" fill="url(#linear_0)" transform="translate(0 0.04998474121094887)  rotate(0 43.455 43.42)" opacity="1" d="" /></g><path id="矩形 10" fill-rule="evenodd" fill="url(#linear_1)" transform="translate(4.146003723144531 31.083099365234375)  rotate(0 67.37799453735353 48.72100830078125)" opacity="1" d="M134.76 97.44L0 97.44L0 0L134.76 0L134.76 97.44Z" /><path  id="形状 5" style="stroke:#22FCFE; stroke-width:3; stroke-opacity:1; stroke-dasharray:0 0" transform="translate(18.660003662109375 20.71600341796875)  rotate(0 0 52.869998931884766)" d="M0,105.74Z M0,0L0,105.74 " /><path  id="形状 5 拷贝 2" style="stroke:#22FCFE; stroke-width:3; stroke-opacity:1; stroke-dasharray:0 0" transform="translate(127.03999328613281 62.756011962890625)  rotate(0 0 27.415000915527344)" d="M0,54.83Z M0,0L0,54.83 " /><path  id="形状 5 拷贝 3" style="stroke:#22FCFE; stroke-width:3; stroke-opacity:1; stroke-dasharray:0 0" transform="translate(112.52999877929688 8.85601806640625)  rotate(0 0 27.40999984741211)" d="M0,54.82Z M0,0L0,54.82 " /><path  id="形状 5 拷贝 9" style="stroke:#22FCFE; stroke-width:3; stroke-opacity:1; stroke-dasharray:0 0" transform="translate(33.75 46.175994873046875)  rotate(0 0 27.40999984741211)" d="M0,54.82Z M0,0L0,54.82 " /><path  id="形状 542" style="stroke:#35E5FC; stroke-width:2; stroke-opacity:1; stroke-dasharray:0 0" transform="translate(2.0723037719726562 2.06201171875)  rotate(0 6.2193984985351705 6.2194061279296875)" d="M12.44,0L0,0L0,12.44 " /><path  id="形状 542 拷贝" style="stroke:#35E5FC; stroke-width:2; stroke-opacity:1; stroke-dasharray:0 0" transform="translate(126.46220397949219 2.06201171875)  rotate(0 6.219444274902358 6.2194061279296875)" d="M0,0L12.44,0L12.44,12.44 " /><path  id="形状 542 拷贝 2" style="stroke:#35E5FC; stroke-width:2; stroke-opacity:1; stroke-dasharray:0 0" transform="translate(2.0723037719726562 118.15921020507812)  rotate(0 6.2193984985351705 6.219390869140625)" d="M12.44,12.44L0,12.44L0,0 " /><path  id="形状 542 拷贝 2" style="stroke:#35E5FC; stroke-width:2; stroke-opacity:1; stroke-dasharray:0 0" transform="translate(126.46220397949219 118.15921020507812)  rotate(0 6.219444274902358 6.219390869140625)" d="M0,12.44L12.44,12.44L12.44,0 " /></g></svg>