<svg xmlns="http://www.w3.org/2000/svg" xmlns:xlink="http://www.w3.org/1999/xlink" width="946.0001525878906" height="94.5659057617188" viewBox="0 0 946.0001525878906 94.5659057617188" fill="none"><defs><linearGradient id="linear_0" x1="50%" y1="100%" x2="51%" y2="0%" gradientUnits="objectBoundingBox"><stop offset="0" stop-color="#3B80FF" stop-opacity="1" /><stop offset="1" stop-color="#4CC6FF" stop-opacity="1" /></linearGradient><linearGradient id="linear_1" x1="0%" y1="50%" x2="100%" y2="50%" gradientUnits="objectBoundingBox"><stop offset="0" stop-color="#3E8EFF" stop-opacity="1" /><stop offset="0.90234375" stop-color="#3F92FF" stop-opacity="0" /><stop offset="1" stop-color="#3F92FF" stop-opacity="0" /></linearGradient><linearGradient id="linear_2" x1="100%" y1="50%" x2="0%" y2="50%" gradientUnits="objectBoundingBox"><stop offset="0" stop-color="#4CC6FF" stop-opacity="1" /><stop offset="0.90234375" stop-color="#4CC6FF" stop-opacity="0" /><stop offset="1" stop-color="#4CC6FF" stop-opacity="0" /></linearGradient></defs><g opacity="1" transform="translate(0 0)  rotate(0 473.0000762939453 47.2829528808594)"><g opacity="1" transform="translate(69.22039672851562 0)  rotate(0 107.5 36.5)"><text><tspan x="0" y="56" font-size="55.9999885559082" line-height="0" fill="#FFFFFF" opacity="1" font-family="YouSheBiaoTiHei" letter-spacing="2.7999994277954103" >整体风貌</tspan></text></g><path  id="多边形 3" style="stroke:#4CC6FF; stroke-width:1; stroke-opacity:1; stroke-dasharray:0 0" transform="translate(8.007194519042969 16.260394287109364)  rotate(0 17.496452331542976 20.1927490234375)" d="M17.49,0L0,10.09L0.01,30.28L17.5,40.39L34.99,30.29L34.99,10.1L17.49,0Z " /><path id="多边形 2" fill-rule="evenodd" fill="url(#linear_0)" transform="translate(16.197494506835938 26.913592529296864)  rotate(0 9.921600341796903 9.921646118164062)" opacity="1" d="M0 9.92L9.92 0L19.84 9.92L9.92 19.84L0 9.92Z" /><g opacity="1" transform="translate(0 14.949908447265614)  rotate(0 473.0000762939453 39.80799865722659)"><path id="矩形 7" fill-rule="evenodd" style="fill:#4CC6FF" transform="translate(0 72.00009155273438)  rotate(0 6.000148773193359 3.4999542236328125)" opacity="1" d="M12 7L0 7L0 0L12 0L12 7Z" /><g opacity="1" transform="translate(12.000297546386719 73.52009155273436)  rotate(0 425.50004959106445 1.9799999999999898)"><path id="Gradient Overlay" fill-rule="evenodd" fill="url(#linear_1)" transform="translate(0.00009918212890625 0)  rotate(0 425.5 1.98)" opacity="1" d="M0 0Z M0 3.96L851 3.96L851 0L0 0L0 3.96Z " /></g><g opacity="1" transform="translate(768.9999694824219 72.38009155273437)  rotate(0 67.50021362304688 3.6179528808594057)"><path id="Gradient Overlay" fill-rule="evenodd" fill="url(#linear_2)" transform="translate(0.00042724609375 0)  rotate(0 67.5 3.615)" opacity="1" d="M127.77 0Z M0 0L9.64 7.23L135 7.23L127.77 0L0 0Z " /></g><path id="矩形 9" fill-rule="evenodd" style="fill:#75D3FF" transform="translate(933.7499694824216 0)  rotate(0 4.125152587890966 4.1250457763671875)" opacity="1" d="M8.25 8.25L0 8.25L0 0L8.25 0L8.25 8.25Z" /><path id="矩形 9 拷贝 2" fill-rule="evenodd" style="fill:#75D3FF" transform="translate(907.7499694824219 0)  rotate(0 4.1251220703125 4.1250457763671875)" opacity="1" d="M8.25 8.25L0 8.25L0 0L8.25 0L8.25 8.25Z" /><path id="矩形 9 拷贝" fill-rule="evenodd" style="fill:#75D3FF" transform="translate(933.7499694824216 24.000091552734375)  rotate(0 4.125152587890966 4.1249542236328125)" opacity="1" d="M8.25 8.25L0 8.25L0 0L8.25 0L8.25 8.25Z" /></g></g></svg>