<svg xmlns="http://www.w3.org/2000/svg" xmlns:xlink="http://www.w3.org/1999/xlink" width="42.99283218383789" height="34" viewBox="0 0 42.99283218383789 34" fill="none"><defs><path id="path_0"
        transform="translate(0 0) rotate(0 21.496416091918945 17)"
        d="M0,34L42.99,34L42.99,0L0,0L0,34Z" /></defs><g opacity="1" transform="translate(0 0)  rotate(0 21.496416091918945 17)"><g opacity="1" transform="translate(0 0)  rotate(0 21.496416091918945 17)"><path id="路径 82" fill-rule="evenodd" style="fill:#FFE02C" transform="translate(24.430938720703125 6.918827056884766)  rotate(0 5.80108642578125 5.75304794311522)" opacity="1" d="M11.6 5.75C11.6 7.81 10.5 9.71 8.7 10.74C6.91 11.76 4.7 11.76 2.9 10.74C1.11 9.71 0 7.81 0 5.75C0 3.7 1.11 1.8 2.9 0.77C4.7 -0.26 6.91 -0.26 8.7 0.77C10.5 1.8 11.6 3.7 11.6 5.75Z" /><g opacity="1" transform="translate(0 0)  rotate(0 21.496416091918945 17)"><g opacity="1" transform="translate(0 0)  rotate(0 21.496416091918945 17)"><mask id="mask-0" fill="white"><use xlink:href="#path_0"></use></mask><g mask="url(#mask-0)"></g><g mask="url(#mask-0)"><path id="路径 83" fill-rule="evenodd" style="fill:#FFE02C" transform="translate(17.483261108398438 0.028610229492144867)  rotate(0 12.751243591308594 12.645606994628956)" opacity="1" d="M12.7925 5.11Z M13.6125 0.81C13.6125 0.36 13.2425 0 12.7925 0L12.7025 0C12.2625 0 11.8925 0.36 11.8925 0.81L11.8925 4.31C11.8925 4.75 12.2625 5.11 12.7025 5.11L12.7925 5.11C13.2425 5.11 13.6125 4.76 13.6125 4.31L13.6125 0.81Z M7.42016 7.29142Z M6.20016 7.35142C6.52016 7.67142 7.03016 7.67142 7.35016 7.35142L7.42016 7.29142C7.73016 6.98142 7.73016 6.46142 7.42016 6.15142L4.92016 3.67142C4.61016 3.36142 4.09016 3.36142 3.77016 3.67142L3.71016 3.74142C3.39016 4.05142 3.39016 4.57142 3.71016 4.88142L6.20016 7.35142Z M5.16 12.6039Z M5.16 12.6039C5.16 12.1539 4.79 11.7939 4.34 11.7939L0.81 11.7939C0.37 11.7939 0 12.1539 0 12.6039L0 12.6939C0 13.1339 0.37 13.4939 0.81 13.4939L4.34 13.4939C4.79 13.4939 5.16 13.1339 5.16 12.6939L5.16 12.6039Z M7.35016 17.9317Z M3.77016 21.6117C4.09016 21.9317 4.61016 21.9317 4.92016 21.6117L7.42016 19.1417C7.73016 18.8317 7.73016 18.3117 7.42016 18.0017L7.35016 17.9317C7.03016 17.6217 6.52016 17.6217 6.20016 17.9317L3.71016 20.4117C3.39016 20.7217 3.39016 21.2417 3.71016 21.5517L3.77016 21.6117Z M12.7025 20.1763Z M11.8925 20.9863L11.8925 24.4863C11.8925 24.9263 12.2625 25.2863 12.7025 25.2863L12.7925 25.2863C13.2425 25.2863 13.6125 24.9263 13.6125 24.4863L13.6125 20.9863C13.6125 20.5363 13.2425 20.1763 12.7925 20.1763L12.7025 20.1763C12.2525 20.1763 11.8925 20.5363 11.8925 20.9863Z M18.0896 18.0017Z M20.5796 21.6117C20.8996 21.9317 21.4096 21.9317 21.7296 21.6117L21.7996 21.5517C22.1096 21.2417 22.1096 20.7217 21.7996 20.4117L19.2996 17.9317C18.9896 17.6217 18.4696 17.6217 18.1496 17.9317L18.0896 18.0017C17.7696 18.3117 17.7696 18.8317 18.0896 19.1417L20.5796 21.6117Z M20.3448 12.6939Z M20.3448 12.6939C20.3448 13.1339 20.7048 13.4939 21.1548 13.4939L24.6848 13.4939C25.1348 13.4939 25.5048 13.1339 25.5048 12.6939L25.5048 12.6039C25.5048 12.1539 25.1348 11.7939 24.6848 11.7939L21.1548 11.7939C20.7148 11.7939 20.3448 12.1539 20.3448 12.6039L20.3448 12.6939Z M18.1496 7.35142Z M21.7296 3.67142C21.4096 3.36142 20.8996 3.36142 20.5796 3.67142L18.0896 6.15142C17.7696 6.46142 17.7696 6.98142 18.0896 7.29142L18.1496 7.35142C18.4696 7.67142 18.9896 7.67142 19.2996 7.35142L21.7996 4.88142C22.1096 4.57142 22.1096 4.05142 21.7996 3.74142L21.7296 3.67142Z " /></g><g mask="url(#mask-0)"><path id="路径 84" fill-rule="evenodd" style="fill:#94B0FF" transform="translate(-0.007170576912727711 8.257302306664059)  rotate(0 17.95252416053559 12.842594818304278)" opacity="1" d="M35.9 16.37C35.88 21.54 31.62 25.72 26.4 25.68C26.29 25.68 26.17 25.67 26.06 25.67L26.06 25.68L9.3 25.68C4.13 25.6 -0.03 21.41 0 16.27C0.03 11.09 4.28 6.92 9.5 6.95C9.59 6.95 9.68 6.96 9.77 6.96C10.85 2.94 14.55 -0.02 18.95 0C23.35 0.02 27.03 3.04 28.05 7.09C32.53 7.85 35.93 11.72 35.9 16.37Z" /></g></g></g></g></g></svg>